<?xml version="1.0" encoding="UTF-8" standalone="no"?>
<!-- Created with Inkscape (http://www.inkscape.org/) -->

<svg
   version="1.1"
   id="svg1"
   width="461.08163"
   height="522"
   viewBox="0 0 461.08163 522"
   sodipodi:docname="39c.svg"
   inkscape:version="1.3.2 (091e20ef0f, 2023-11-25)"
   xmlns:inkscape="http://www.inkscape.org/namespaces/inkscape"
   xmlns:sodipodi="http://sodipodi.sourceforge.net/DTD/sodipodi-0.dtd"
   xmlns="http://www.w3.org/2000/svg"
   xmlns:svg="http://www.w3.org/2000/svg">
  <defs
     id="defs1" />
  <sodipodi:namedview
     id="namedview1"
     pagecolor="#ffffff"
     bordercolor="#000000"
     borderopacity="0.25"
     inkscape:showpageshadow="2"
     inkscape:pageopacity="0.0"
     inkscape:pagecheckerboard="0"
     inkscape:deskcolor="#d1d1d1"
     showgrid="false"
     inkscape:zoom="0.90028971"
     inkscape:cx="228.25986"
     inkscape:cy="280.46527"
     inkscape:window-width="1920"
     inkscape:window-height="1011"
     inkscape:window-x="0"
     inkscape:window-y="0"
     inkscape:window-maximized="1"
     inkscape:current-layer="layer1" />
  <g
     inkscape:groupmode="layer"
     id="layer1"
     inkscape:label="Layer 1"
     transform="translate(-37.585051,-34.000001)">
    <path
       id="path1"
       style="fill:#000000"
       d="M 312.14364 34.000001 L 308.72958 38.220704 C 306.85201 40.542098 300.58622 46.35477 294.8038 51.138673 C 286.56841 57.951979 283.39217 61.633863 280.1456 68.13086 C 275.63403 77.159284 275.00284 83.03045 277.81943 89.771485 C 280.31545 95.745332 287.26908 101.33399 292.2081 101.33399 C 296.02265 101.33399 296.16827 101.53732 295.30185 105.66602 C 292.62733 118.4108 282.31646 136.33647 272.14364 145.92578 L 267.97763 149.85352 L 262.82529 144.82031 C 259.99069 142.05242 256.8714 138.18494 255.89364 136.22656 C 254.91589 134.26819 253.32939 131.70709 252.36825 130.53516 C 250.52966 128.29331 242.73767 107.19409 242.69247 104.33399 C 242.67733 103.37475 244.32027 102.66602 246.56357 102.66602 C 248.85399 102.66602 252.22799 101.18059 254.74521 99.062501 C 268.27847 87.675002 263.93593 69.078285 243.86435 52.472657 C 238.08193 47.688754 231.82971 41.876082 229.97177 39.554688 C 226.664 35.421806 226.55377 35.388832 224.62411 38.000001 C 223.54024 39.466666 218.2344 46.367332 212.83505 53.333985 C 201.18536 68.365322 196.51661 79.346961 197.79794 88.695313 C 199.60017 101.84394 206.91099 108.46731 218.91708 107.83008 L 225.86239 107.46289 L 228.19247 116.69336 C 229.47369 121.77013 230.37087 126.07355 230.18661 126.25781 C 230.00236 126.44207 222.68405 124.27565 213.92489 121.44336 C 205.16575 118.61107 194.5976 115.54291 190.43857 114.625 C 183.17607 113.02216 182.92452 112.82653 184.12021 109.68164 C 185.85505 105.11869 183.29425 96.454751 179.04599 92.517579 C 167.30924 81.640332 148.43921 86.83198 124.66708 107.47852 C 117.33376 113.84764 111.17931 119.43225 110.9913 119.88867 C 110.80328 120.34508 112.7291 121.83834 115.2706 123.20703 C 117.81209 124.57571 124.59685 130.62605 130.34677 136.65234 C 141.61818 148.46551 149.14081 152.3911 160.21396 152.23828 C 169.86561 152.10508 179.99911 143.00264 179.99911 134.46875 C 179.99911 129.95237 181.5742 129.72815 192.09091 132.74219 C 204.1084 136.18634 223.88097 144.99558 237.92294 153.16211 C 249.9861 160.17779 254.53385 164 250.81747 164 C 248.19176 164 227.40565 180.53898 215.6788 191.95899 C 205.32842 202.03855 203.99512 202.95385 203.96982 200 C 203.90099 191.95767 195.55466 180.22848 184.09482 172.06836 C 178.99313 168.43563 178.99424 168.41385 183.47763 180 C 185.02733 184.0048 185.8328 189.99042 185.8995 198 C 186.00989 211.25739 183.57682 220.44204 175.12216 238.66602 L 170.48154 248.66602 L 162.07529 232 C 157.45214 222.83335 150.94851 210.55456 147.62216 204.71289 L 141.57529 194.0918 L 145.17685 191.90039 C 156.01206 185.31111 157.2735 169.5353 147.69247 160.42969 C 139.14239 152.30388 130.08044 149.16811 107.88974 146.6543 C 101.04363 145.87877 94.099978 144.90768 92.460051 144.49609 C 89.608732 143.78047 89.537963 143.962 90.838957 148.67383 C 91.587222 151.38382 91.83591 156.09196 91.391692 159.13477 C 87.993833 182.4094 87.965762 183.81076 90.760832 191.28125 C 93.644103 198.98748 100.31138 206.02452 106.10458 207.47852 C 111.34001 208.79253 121.15671 207.23986 124.0245 204.64453 C 126.54254 202.36573 126.82003 202.75998 135.19052 220.41797 C 146.80903 244.92784 146.59087 243.98835 140.38193 242.65234 C 137.60535 242.05491 129.93308 240.85011 123.3331 239.97461 L 111.3331 238.38281 L 111.72372 232.19141 C 112.46833 220.35924 104.18672 212.75471 90.661223 212.84961 C 79.305268 212.92932 71.226376 216.3579 57.989348 226.71289 C 51.395317 231.87124 44.050411 237.596 41.667082 239.43555 C 36.340295 243.54698 36.270044 244.71509 41.202238 247.26563 C 43.330485 248.36617 49.481803 253.81889 54.870207 259.38281 C 66.433066 271.32232 71.209091 274.52387 80.794035 276.75195 C 95.254097 280.1133 106.85951 273.59717 108.87607 260.98633 L 109.72177 255.70703 L 116.14364 256.56055 C 123.18102 257.4941 140.68546 262.90583 146.66513 265.99805 C 152.56492 269.04894 153.85154 274.93196 151.31161 287.22852 C 147.85623 303.95713 147.75057 304.0841 143.39755 296.65625 C 138.04214 287.51793 128.71755 279.34341 120.43857 276.5293 C 116.57491 275.216 113.07223 274.48352 112.65536 274.90039 C 112.23848 275.31726 114.23702 279.1853 117.09482 283.49609 C 124.87373 295.23006 127.86042 301.73624 130.67294 313.07031 C 133.56859 324.73942 134.29594 338.9414 132.71396 352.89649 L 131.62997 362.45899 L 125.65341 354.22852 C 122.36564 349.70247 117.80776 344.02626 115.5245 341.61328 L 111.37216 337.22461 L 115.712 333.82813 C 120.98375 329.70237 123.99911 324.19369 123.99911 318.68945 C 123.99911 304.57492 109.51882 293.82094 86.126067 290.56445 C 80.923791 289.84025 73.665774 288.70336 69.999113 288.03711 C 59.237091 286.08162 56.863919 286.27427 58.141692 289 C 58.743294 290.28333 59.290035 300.33401 59.356535 311.33399 C 59.487696 333.02822 60.934954 338.64414 68.547942 347.01367 C 74.741498 353.82272 85.293884 355.3794 93.079192 350.63281 C 95.506606 349.15286 97.943129 348.22055 98.493254 348.56055 C 100.6258 349.87854 114.77001 372.02255 117.40341 378.16602 C 118.93061 381.72881 120.97598 388.0546 121.94833 392.22266 L 123.71591 399.80078 L 116.84286 394.20117 C 105.50015 384.96241 97.464621 382.09357 82.780363 382.04297 C 74.376878 382.01401 70.053999 382.51281 69.706145 383.55274 C 69.420337 384.40716 70.570468 385.53163 72.260832 386.05078 C 76.922181 387.48238 91.01655 397.86028 95.985442 403.51953 C 106.46998 415.46076 111.94492 434.34925 111.96982 458.66602 C 111.98821 476.6059 110.66938 482.38466 105.11825 488.70703 C 99.336982 495.29155 90.413102 497.62232 73.024504 497.08789 L 59.333098 496.66602 L 58.973723 526.33399 L 58.616301 556 L 265.25888 556 L 471.90341 556 L 472.28427 526.0918 L 472.66708 496.18359 L 453.89169 495.75781 C 435.67118 495.34531 434.97025 495.22305 430.212 491.58984 C 427.51524 489.53071 424.12123 485.5165 422.66904 482.66992 C 419.39944 476.26101 417.63715 456.79228 419.6788 449.625 C 420.45572 446.89758 421.76588 440.166 422.58896 434.66602 C 423.41204 429.16602 425.85146 420.87888 428.01083 416.25 C 433.03634 405.47724 445.58098 392.28484 455.34091 387.50586 C 459.37052 385.53275 462.66708 383.39458 462.66708 382.75586 C 462.66708 380.79061 447.73869 379.79937 440.19638 381.26367 C 431.56024 382.94034 421.82543 388.05895 414.62216 394.70899 L 409.28036 399.63867 L 410.08505 394.82031 C 412.07644 382.90545 416.6429 372.79687 427.01669 357.33399 C 430.70654 351.83399 433.93418 347.08622 434.18857 346.78516 C 434.44297 346.4841 435.91961 347.3841 437.46982 348.78516 C 439.65453 350.75969 442.279 351.32975 449.14364 351.31445 C 459.85153 351.29064 465.06106 348.10041 469.67099 338.74609 C 472.38029 333.24851 472.67293 330.66859 472.72763 311.79883 C 472.77023 297.11447 473.28234 290.33467 474.4581 288.91797 C 476.16693 286.85895 474.46955 284.47329 472.26474 285.83594 C 471.6768 286.1993 464.62548 287.19308 456.59677 288.04297 C 440.93866 289.70047 428.57551 293.16172 422.0538 297.71289 C 412.83014 304.14965 408.41782 312.5031 409.78622 320.93555 C 410.65056 326.2618 416.53596 334.66602 419.40146 334.66602 C 422.11233 334.66602 421.83452 335.59195 417.88388 339.72461 C 415.98664 341.70927 411.55133 347.38461 408.02841 352.33594 C 401.82663 361.05232 401.59482 361.22462 400.72568 357.76172 C 399.36726 352.34934 399.72127 325.60668 401.25693 317.62891 C 403.37331 306.63417 409.16279 293.44118 415.8663 284.33399 C 419.23995 279.75067 422.44911 276.00001 422.99911 276 C 423.54911 275.99999 423.99911 275.39935 423.99911 274.66602 C 423.99911 272.34821 419.59809 273.2106 411.2413 277.16406 C 401.23804 281.89645 394.30659 287.86443 389.71396 295.70117 C 386.31301 301.50445 386.15701 301.59936 385.0206 298.52734 C 382.23562 290.99885 381.5151 277.27612 383.58505 271.20117 C 386.07299 263.89949 388.70062 262.4155 406.95029 257.99414 C 425.60826 253.47387 426.14354 253.52009 427.14755 259.79883 C 428.90329 270.7786 436.80277 276.25334 450.3995 275.91211 C 461.82233 275.62544 466.83127 272.80555 479.99911 259.25391 C 485.49911 253.5936 491.94974 248.13891 494.3331 247.13086 C 496.71644 246.12281 498.66708 244.75305 498.66708 244.08789 C 498.66708 241.70594 471.17068 219.88129 463.06552 215.83008 C 442.88895 205.74522 423.17504 213.37641 424.27646 230.8457 L 424.66708 237.02539 L 413.99911 238.35938 C 408.13246 239.09276 401.83244 239.73511 399.99911 239.78711 C 398.1658 239.83909 395.32828 240.21728 393.69247 240.62695 C 390.07263 241.53353 389.90295 242.037 401.22763 218.14649 C 409.17984 201.3705 409.43856 201.01374 411.96786 203.30274 C 414.84314 205.90482 424.65382 207.46013 429.8956 206.14453 C 435.78131 204.66731 442.35366 197.65324 445.40927 189.58594 C 448.28841 181.98454 448.4108 173.67958 445.88974 157.11133 C 445.48069 154.42304 445.75615 150.01622 446.50107 147.31836 C 447.79535 142.63086 447.72349 142.44696 444.87411 143.16211 C 443.2342 143.57371 436.2152 144.54631 429.27841 145.32422 C 415.40254 146.88031 401.23926 150.03592 395.86435 152.76758 C 390.5168 155.48532 384.45269 163.16777 383.45419 168.49024 C 382.10949 175.65807 384.66539 183.13602 390.08505 187.89453 L 394.79794 192.0332 L 387.19052 205.68359 C 383.00655 213.19098 378.46269 220.94654 377.09286 222.91797 C 375.72302 224.8894 372.16546 231.43835 369.18661 237.4707 L 363.7706 248.4375 L 360.37216 240.55274 C 351.58455 220.16121 348.89771 210.37362 348.87411 198.66602 C 348.8566 189.99018 349.56414 185.5136 351.88974 179.57422 C 353.56061 175.30695 354.58359 171.4712 354.16318 171.05078 C 353.74276 170.63037 350.08034 173.12289 346.0245 176.58789 C 338.51804 183.00088 333.01438 190.99122 331.44247 197.75977 L 330.56943 201.51953 L 319.75302 191.34375 C 313.80407 185.7474 303.77545 177.2003 297.46786 172.34961 C 291.16029 167.49893 285.526 163.13142 284.94638 162.64453 C 283.8914 161.75832 293.54786 154.66602 295.80966 154.66602 C 296.46987 154.66602 300.40042 152.62602 304.54404 150.13086 C 317.43269 142.36972 347.71471 130.66602 354.90927 130.66602 C 356.66426 130.66602 357.33496 131.68002 357.33896 134.33399 C 357.34998 142.44561 365.91681 150.66602 374.35849 150.66602 C 379.91572 150.66602 391.74847 146.90235 398.66708 142.93359 C 401.96708 141.04062 408.43079 136.0141 413.03036 131.76367 C 417.62995 127.51326 422.90596 123.65549 424.75497 123.19141 C 426.60399 122.72734 427.94095 121.91035 427.72568 121.375 C 426.36739 117.9972 397.98983 95.309862 390.69052 91.765626 C 370.81014 82.112567 353.83125 89.046764 354.09482 106.71289 L 354.18857 113.01563 L 346.76083 114.6543 C 342.67581 115.55565 332.16647 118.61107 323.40732 121.44336 C 314.64818 124.27565 307.21255 126.32476 306.88388 125.99609 C 306.55521 125.66743 306.90502 124.63361 307.66122 123.69922 C 308.41742 122.76483 309.77708 118.64523 310.68271 114.54492 L 312.32919 107.08984 L 318.84091 107.71484 C 324.26819 108.23634 326.23392 107.75939 330.63974 104.84375 C 340.58942 98.259368 343.42931 87.434722 338.64755 74.320313 C 335.14672 64.718999 332.20361 59.827971 323.12607 48.531251 C 319.53052 44.056709 315.58842 38.956046 314.3663 37.197267 L 312.14364 34.000001 z M 268.60458 173.61133 C 269.56609 173.76733 270.40266 174.50462 271.61435 175.71484 C 272.92625 177.02515 280.03212 183.28749 287.40536 189.62891 C 312.95441 211.60255 328.12433 230.06283 343.26474 257.60742 C 355.30274 279.50787 370.57456 323.83559 372.64755 342.89649 C 372.99274 346.07048 374.0851 353.8794 375.07529 360.25 L 376.87411 371.83203 L 365.20224 363.83789 C 346.66077 351.13859 341.77789 342.45774 340.39364 319.73633 L 339.58896 306.52344 L 335.81552 312.92774 C 330.28764 322.31481 328.10379 330.04804 327.69638 341.66406 C 327.49709 347.34617 326.94885 351.99705 326.47958 351.99805 C 323.93308 352.00472 298.36269 346.30905 292.66708 344.4668 C 280.85496 340.64618 280.53457 340.32964 284.36435 336.21484 C 286.18028 334.26378 289.39002 329.96601 291.49716 326.66602 C 297.50669 317.25443 298.34184 316.62657 301.28818 319.29297 C 305.12138 322.76197 313.86052 323.4346 319.87021 320.72461 C 327.55906 317.25742 330.97698 310.14453 332.05771 295.36328 C 332.82002 284.93701 332.49528 281.73419 329.62411 271.33399 C 327.80207 264.73399 325.58323 256.66318 324.69247 253.40039 C 322.77896 246.39128 320.88128 245.37502 316.82724 249.18359 C 315.18691 250.7246 307.93585 254.35332 300.71396 257.24805 C 279.70105 265.6706 269.12035 278.36878 271.25497 292.60352 C 272.21772 299.02358 276.98631 305.95363 281.40927 307.35742 C 283.84193 308.12952 283.63572 308.76178 278.59677 315.94531 C 275.60484 320.2106 271.76248 325.01173 270.05771 326.61328 L 266.9581 329.52539 L 258.81161 319.84766 C 254.33169 314.52551 250.66708 309.78032 250.66708 309.30078 C 250.66708 308.82123 252.16801 307.74429 254.00302 306.9082 C 261.40727 303.5346 266.27934 286.94193 262.18857 279.03125 C 256.97296 268.94537 246.77283 261.7501 227.60068 254.63086 C 223.34797 253.05169 218.26798 250.38201 216.31161 248.69922 L 212.75497 245.64063 L 209.712 255.82031 C 202.98072 278.33469 201.03182 288.44477 201.67099 297.56055 C 202.45758 308.7789 205.96684 315.75173 212.78427 319.64453 C 219.30084 323.36555 223.93706 323.43232 230.84872 319.90625 C 233.8239 318.38842 236.39092 317.33973 236.55185 317.57422 C 236.71278 317.80871 240.30231 323.00113 244.53036 329.11328 C 248.75843 335.22544 252.01985 340.36858 251.77646 340.54297 C 249.06355 342.48678 211.65444 352 206.72372 352 C 206.27757 352 206.15022 347.79585 206.44052 342.6582 C 207.05539 331.77663 204.77069 323.44743 198.29013 312.94922 L 193.99911 306 L 193.22958 321.39453 C 192.59828 334.00543 191.87496 337.96112 189.22958 343.26563 C 185.74319 350.25652 174.53507 362.10755 170.07919 363.51563 C 168.56874 363.99293 165.5331 365.7085 163.3331 367.32813 C 156.29809 372.50725 156.09496 372.49764 156.87607 367.0293 C 161.55841 334.24988 170.77806 301.57855 181.99716 278 C 201.07637 237.9023 229.73976 201.43199 260.43466 178.20313 C 265.05146 174.70929 267.00207 173.35133 268.60458 173.61133 z M 266.73544 353.40625 L 275.03427 357.8457 C 285.7976 363.60199 303.62322 369.66089 321.99911 373.81055 C 330.06578 375.63216 338.38996 377.78314 340.49521 378.58984 L 344.32138 380.05664 L 338.87607 384.00195 C 334.29346 387.32158 329.3331 393.86887 329.3331 396.59961 C 329.3331 397.76673 335.86334 397.47264 346.75888 395.81445 C 359.32861 393.9015 365.42428 394.98986 371.3663 400.20703 C 378.41113 406.39248 380.54479 415.24309 380.3663 437.53711 C 380.20791 457.32078 378.31034 467.52923 372.75302 478.49609 C 368.58405 486.72315 360.14127 494.07464 353.62216 495.15234 C 350.89671 495.60291 330.25187 495.97638 307.74521 495.98438 C 281.91878 495.99364 266.51919 496.49249 265.99911 497.33399 C 264.89933 499.11345 260.34746 499.03917 259.74521 497.23242 C 259.42438 496.26993 245.69487 495.58655 217.96591 495.15234 C 195.25099 494.79666 175.2877 494.22421 173.60263 493.87891 C 166.4157 492.40621 156.50552 477.85557 152.67685 463.15625 C 149.17107 449.69669 151.71018 420.28137 157.39169 408.54492 C 160.88662 401.32538 170.26229 396.97307 189.03427 393.85547 C 197.49396 392.45051 202.66708 390.98338 202.66708 389.99024 C 202.66708 389.10996 199.34844 386.6111 195.29404 384.43555 L 187.92294 380.47852 L 201.62802 376.72656 C 237.22647 366.97848 248.0461 363.44132 257.03427 358.61524 L 266.73544 353.40625 z " />
    <path
       id="path27"
       style="fill:#008000"
       d="M 313.21786 45.38672 L 303.93466 52.140626 C 297.22685 57.01948 292.98577 61.46319 288.65732 68.154298 C 281.94716 78.527133 281.17122 83.530057 285.23544 90.195313 C 288.1708 95.009248 296.57341 98.626881 299.05575 96.144532 C 303.54911 91.65118 303.95803 100.18902 299.83114 112.32813 C 295.11596 126.1977 287.11784 138.33646 275.64169 149.04102 C 271.68936 152.72761 271.89218 153.41261 277.837 156.48047 C 281.4221 158.33058 281.89195 158.25767 285.00497 155.37109 C 286.83719 153.67218 293.51067 149.36121 299.83505 145.79102 C 310.05588 140.0212 314.92373 137.6711 329.99911 131.23438 C 341.01679 126.53016 352.13991 123.68322 359.13779 123.77734 C 364.07349 123.84374 364.35066 124.23678 362.64364 128.72656 C 360.84584 133.45518 362.69445 138.2773 367.72958 141.99024 C 371.96645 145.11451 382.14564 145.22757 386.96396 142.20313 C 388.63326 141.1553 392.39977 139.56471 395.3331 138.66992 C 398.96899 137.56081 403.28084 134.31307 408.87997 128.46289 L 417.09286 119.88086 L 414.12216 116.93945 C 399.77809 102.73826 384.33338 93.999704 374.03427 94.257813 C 368.40519 94.398885 366.84142 95.050857 363.70029 98.566407 C 360.11523 102.57877 359.13702 106.86578 360.80966 111.22461 C 361.42041 112.81619 363.53883 113.33399 369.44247 113.33399 C 376.67716 113.33399 377.41209 113.05099 379.212 109.57031 C 381.65814 104.84001 384.79849 102.17776 386.61239 103.29883 C 388.18663 104.27177 386.69909 107.77658 383.24716 111.22852 C 381.33075 113.1449 381.71591 113.33307 387.57138 113.33984 C 395.25179 113.34884 402.48899 115.19982 406.06161 118.06641 C 408.48397 120.01005 408.19819 120.08834 401.99911 119.20508 C 382.12489 116.37333 347.4444 118.9379 336.34872 124.05859 C 333.24007 125.49326 329.9394 126.66427 329.01474 126.66211 C 328.09008 126.66011 321.14045 128.81842 313.57138 131.45703 C 306.0023 134.09565 299.43863 135.88288 298.98544 135.42969 C 298.53225 134.9765 299.56769 130.26868 301.28622 124.96875 C 306.28721 109.54576 307.89008 99.37489 308.84677 77.000001 C 309.34062 65.450025 310.25198 56.000001 310.87216 56.000001 C 311.49233 56.000001 312.04652 56.450003 312.10263 57.000001 C 312.15873 57.549999 312.4688 59.199352 312.79208 60.666017 C 313.11536 62.132679 313.39089 67.082691 313.40536 71.666017 C 313.41986 76.24934 313.73149 80.000001 314.09677 80.000001 C 314.46204 80.000001 316.22093 79.043943 318.00497 77.875001 C 323.88842 74.020022 324.59945 76.72685 318.90536 81.302735 C 313.93801 85.294613 313.3331 86.395187 313.3331 91.460938 C 313.3331 98.065506 315.91455 101.34211 321.09482 101.3125 C 325.79815 101.2856 326.91762 100.42363 331.27255 93.472657 C 334.3214 88.60638 334.79884 86.696723 334.0831 82.220704 C 333.00871 75.501845 326.57352 63.050399 318.99521 53.027345 L 313.21786 45.38672 z M 294.64364 64.000001 C 297.89552 64.000001 306.42338 69.384373 306.14755 71.263673 C 305.66879 74.525731 304.74864 74.6777 300.87216 72.134767 C 296.53161 69.287415 292.48308 64.000001 294.64364 64.000001 z M 286.44833 74.687501 C 287.84732 74.699401 290.59996 75.682713 293.95419 77.48047 C 300.02789 80.735769 306.99804 87.719718 305.91708 89.468751 C 304.83479 91.219938 303.21745 90.936505 301.3331 88.666017 C 300.42018 87.566018 299.06914 86.666017 298.33114 86.666017 C 296.92002 86.666017 286.31971 77.606911 285.55575 75.748048 C 285.25772 75.022895 285.60895 74.68036 286.44833 74.687501 z M 371.4581 121.62109 C 373.44113 121.51026 380.56106 129.58469 382.58896 134.48047 C 383.5428 136.78324 384.85085 138.66602 385.49521 138.66602 C 386.13958 138.66602 386.66708 139.26667 386.66708 140 C 386.66708 142.90383 382.90659 141.07466 379.13193 136.33399 C 373.41093 129.14889 369.98379 122.904 371.13193 121.75586 C 371.21543 121.67236 371.3259 121.62848 371.4581 121.62109 z M 389.89169 122.66602 C 391.56249 122.66602 397.3331 130.28467 397.3331 132.49024 C 397.3331 134.41133 394.55897 133.09968 391.38779 129.67969 C 387.63141 125.62859 386.99943 122.66602 389.89169 122.66602 z M 98.50302 150.66602 C 96.584412 150.66602 96.133485 153.00328 95.313567 167.21875 C 94.494576 181.41813 94.696053 184.65454 96.731535 189.98438 C 99.09092 196.16233 104.55095 201.51361 110.26669 203.24805 C 114.14127 204.42378 121.031 200.78892 122.962 196.55078 C 123.81501 194.67863 125.39008 193.40055 126.57138 193.62109 C 127.78056 193.84684 134.02444 204.4741 141.3331 218.74609 C 148.29975 232.35023 154.7534 244.76584 155.67489 246.33594 C 158.50578 251.15927 154.65156 251.90775 141.54794 249.07813 C 135.19636 247.70655 126.39911 245.93326 121.99911 245.13867 C 112.593 243.44005 69.857247 242.88151 61.667082 244.34961 C 55.425654 245.46839 54.057685 243.81607 58.999113 241.12695 C 61.583022 239.72081 65.011931 239.34329 80.491301 238.75977 C 82.734259 238.67517 82.627195 238.201 79.422942 234 C 76.131002 229.68405 76.060184 229.33399 78.479582 229.33399 C 79.918378 229.33399 82.7299 231.28269 84.727629 233.66602 C 87.766109 237.29097 89.511409 238.11077 95.397551 238.67383 C 103.26205 239.42614 105.3331 237.82072 105.3331 230.98047 C 105.3331 223.81007 97.753621 217.33399 89.362395 217.33399 C 83.645124 217.33399 71.132752 223.95161 61.161223 232.25 C 46.566827 244.39558 46.539009 241.86688 61.424895 256.42578 C 72.64976 267.40409 75.535589 269.51143 81.87216 271.35352 C 88.683614 273.33365 89.604913 273.32936 93.879973 271.30078 C 100.75776 268.03707 103.14912 263.59586 102.22568 255.79883 C 101.32399 248.1855 100.74867 248.35114 117.3331 251.46484 C 123.56642 252.63514 131.0658 254.02745 133.99911 254.55859 C 141.42407 255.9031 151.31396 260.52579 155.30771 264.51953 C 158.18237 267.39421 158.66708 269.08323 158.66708 276.22852 C 158.66708 280.82065 157.82796 286.99723 156.8038 289.95508 C 155.77963 292.91293 154.29091 297.73268 153.49521 300.66602 C 152.69951 303.59933 150.92335 309.85014 149.54794 314.55664 L 147.04794 323.11524 L 146.07529 317.89063 C 145.18697 313.12156 142.87085 307.74141 136.91122 296.59766 C 135.71451 294.35994 133.13736 291.06122 131.18466 289.26563 L 127.63388 286 L 128.34677 289.33399 C 128.73817 291.16731 130.89912 297.7913 133.1495 304.05469 C 138.55519 319.09993 140.31521 334.94608 138.5245 352.45899 C 136.53624 371.90414 135.51097 377.72804 133.99911 378.19336 C 133.26578 378.41907 130.26642 374.66311 127.3331 369.84766 C 124.39977 365.03219 118.99975 356.86582 115.3331 351.69922 C 111.66644 346.53261 108.06644 341.34571 107.3331 340.17383 C 106.59977 339.00191 103.74911 335.39994 100.99911 332.16797 C 98.249122 328.93601 95.999113 325.817 95.999113 325.23633 C 95.999113 324.65566 94.799761 323.79948 93.333098 323.33399 C 91.866434 322.86849 90.667082 321.62675 90.667082 320.57617 C 90.667082 319.52558 90.012551 318.66602 89.213957 318.66602 C 88.415362 318.66602 85.566656 316.61158 82.881926 314.09961 C 80.197195 311.58763 76.500411 308.33063 74.667082 306.86133 C 72.275378 304.94452 71.739291 303.77599 72.768645 302.72656 C 74.2481 301.21827 75.711533 302.28604 87.053801 313.14258 C 91.244585 317.1539 92.324886 317.64058 93.368254 315.99024 C 94.060376 314.89547 94.634368 312.68483 94.645598 311.07813 C 94.656828 309.47141 95.360975 307.72789 96.210051 307.20313 C 97.343417 306.50267 97.52975 308.1408 96.911223 313.36328 C 96.114289 320.09216 96.324183 320.7882 100.79013 326.23828 C 105.90806 332.48407 108.46641 333.19221 112.8038 329.56641 C 118.73632 324.60718 120.24369 317.57155 116.79599 310.93359 C 112.72415 303.09395 101.50637 298.10362 83.333098 296.04688 C 63.786138 293.83464 65.820757 292.2544 64.731535 310.50391 C 63.861353 325.08348 64.022508 326.90946 66.762785 333.50391 C 70.610846 342.76421 75.545166 347.87823 81.579192 348.85742 C 85.954202 349.56739 86.851437 349.11039 92.147551 343.48242 C 98.445033 336.79035 99.999114 336.05037 99.999113 339.74609 C 99.999113 341.07325 102.55043 345.2504 105.66708 349.0293 C 114.09165 359.24394 123.37671 374.44911 125.80185 382 C 127.58433 387.54991 131.99911 412.71528 131.99911 417.32422 C 131.99911 420.49555 129.22398 418.06721 122.82919 409.30274 C 113.79519 396.921 98.115465 386.71259 88.073332 386.67383 C 87.013888 386.66983 90.390926 390.71602 95.577238 395.66602 C 106.18189 405.78745 110.36572 412.44197 114.65341 426 C 117.15547 433.91171 117.5839 438.17659 117.46591 454 C 117.29548 476.85521 115.40049 484.48357 107.85458 492.66992 C 100.62291 500.51537 93.83081 502.66602 76.286223 502.66602 C 64.154375 502.66602 62.48441 502.9353 63.19052 504.77539 C 63.635643 505.93537 63.999114 517.03669 63.999113 529.44336 L 63.999113 552 L 161.99911 552 L 259.99911 552 L 259.99911 526.71875 L 259.99911 501.43555 L 215.62802 501.05078 L 171.25497 500.66602 L 165.55575 496.47266 C 162.42085 494.16629 158.62058 489.96757 157.11239 487.14063 C 155.60423 484.31367 153.56951 480.49934 152.58896 478.66602 C 148.3073 470.66059 146.50791 459.28434 146.44638 439.82813 C 146.37108 416.00634 148.41957 407.25403 155.78427 399.93164 C 161.06196 394.68427 171.51569 390.16925 182.04794 388.58984 L 188.65732 387.59766 L 183.56357 385.83399 C 179.63973 384.47553 176.92938 384.39992 171.77255 385.50586 C 167.26547 386.47246 164.63584 386.50195 163.72958 385.5957 C 161.04492 382.91106 186.3846 373.7214 221.3331 364.70313 C 256.42068 355.64897 273.89464 344.72063 287.86044 323.10156 C 290.31111 319.30794 292.22361 315.83789 292.11044 315.38867 C 291.99727 314.93945 292.67541 313.71438 293.61825 312.66602 C 297.52142 308.3261 298.27814 307.06246 299.22177 303.30274 C 299.76591 301.13472 300.71991 299.04591 301.34091 298.66211 C 301.96192 298.27831 304.55014 291.09282 307.09286 282.69531 C 311.66793 267.58595 314.66708 262.7019 314.66708 270.35742 C 314.66708 274.82869 312.74083 281.39331 309.60654 287.61328 C 306.91864 292.94736 307.78937 293.88516 313.87411 292.20508 C 318.10334 291.03733 318.66708 291.16721 318.66708 293.30859 C 318.66708 295.1179 316.9707 296.14133 311.99911 297.33399 C 308.33246 298.21359 305.3331 299.53293 305.3331 300.26563 C 305.3331 300.99832 304.32437 303.72294 303.09091 306.32227 C 300.89801 310.94344 300.91723 311.10397 303.92685 313.54102 C 309.26899 317.86682 312.90786 317.99215 318.60654 314.04297 C 324.12299 310.22005 327.99911 302.80208 327.99911 296.07422 C 327.99911 290.6977 325.66916 279.94738 321.7413 267.21289 L 318.41318 256.42383 L 312.20614 259.48242 C 308.79257 261.1646 302.54939 263.83973 298.3331 265.42578 C 286.21464 269.98436 275.99911 281.66213 275.99911 290.95703 C 275.99911 297.58522 284.81002 305.50959 289.97568 303.52734 C 292.31618 302.62922 292.89019 307.29146 290.61239 308.69922 C 289.84936 309.17081 287.83492 311.75698 286.13583 314.44531 C 284.43673 317.13367 278.78099 323.89881 273.56747 329.47852 C 259.14212 344.91707 247.95749 349.81395 205.47958 359.29297 C 194.47887 361.7478 191.27265 360.72648 195.79208 356.20703 C 197.29117 354.70794 198.91857 351.34223 199.40927 348.72656 C 199.89998 346.11091 200.83524 343.64206 201.48544 343.24024 C 203.12978 342.22398 202.78688 336.22493 200.76864 330.66602 L 199.07529 326 L 197.54404 334.73438 C 194.68518 351.05086 189.04612 358.71814 171.41708 370.24805 C 166.23802 373.6353 159.81389 378.11477 157.14169 380.20313 C 152.2629 384.01597 147.99911 385.16087 147.99911 382.6582 C 147.99911 379.68985 152.10631 354.98636 153.4288 350 C 155.26284 343.08491 157.04591 335.91116 158.48349 329.66602 C 164.97795 301.45277 168.96358 290.42093 182.43857 263.33399 C 192.07894 243.95525 196.76591 236.33409 206.20419 224.70117 C 215.87019 212.78756 246.61239 182.34938 255.837 175.55859 C 263.9043 169.61981 264.45904 167.73069 258.51083 166.46094 C 253.94477 165.48623 222.07923 192.78286 203.73544 213.38281 C 199.55661 218.07564 195.76369 221.53996 195.30575 221.08203 C 194.84781 220.62409 195.1129 217.94376 195.8956 215.125 C 198.01546 207.49068 197.63169 197.69369 194.99911 192.20117 L 192.66708 187.33399 L 191.88193 202 C 190.87141 220.8718 187.65163 230.94804 175.07529 254.61524 C 170.83562 262.59377 169.62691 263.69002 168.51279 260.55664 C 166.15397 253.92282 147.49492 216.62597 140.88583 205.33399 C 133.20849 192.21678 130.84021 188.94158 122.24521 179.55664 C 119.44637 176.50058 115.63642 171.78021 113.77841 169.06641 C 111.9204 166.35258 108.96009 163.18824 107.20029 162.03516 C 103.96945 159.91823 102.91571 157.33399 105.28427 157.33399 C 105.99077 157.33399 110.48588 160.99689 115.27255 165.47461 C 121.08564 170.91246 124.18722 173.0162 124.61435 171.80859 C 124.96607 170.81423 125.97834 168.2 126.86435 166 C 128.32866 162.36405 128.52227 162.26523 128.98544 164.91016 C 129.26569 166.51052 128.57546 169.59747 127.45224 171.76953 C 125.47373 175.59554 125.55789 175.90988 130.10068 181.85938 C 132.67963 185.23694 135.63323 188 136.66513 188 C 141.25103 188 145.3658 184.66999 147.41708 179.29883 C 149.40351 174.09744 149.40133 173.33325 147.38779 169.43945 C 145.22933 165.26547 135.0781 157.92632 127.3331 154.94141 C 123.75444 153.56219 104.22461 150.66602 98.50302 150.66602 z M 106.92099 172.01758 C 110.89288 171.99738 113.58996 174.61242 109.74521 174.75586 C 108.41859 174.80536 105.41384 175.09735 103.06747 175.4043 C 100.72111 175.71126 98.478477 175.4386 98.083098 174.79883 C 97.250781 173.45211 101.7252 172.04395 106.92099 172.01758 z M 117.48544 184.83984 C 120.52674 184.83184 122.86306 185.08465 123.47568 185.69727 C 125.2906 187.51219 123.07592 188.04486 110.20029 188.89063 C 101.36238 189.47117 97.333098 189.28498 97.333098 188.29688 C 97.333098 186.57557 109.71324 184.85981 117.48544 184.83984 z M 75.061613 247.04297 C 76.825231 246.93858 77.158157 249.14163 74.735442 252.0957 C 69.107952 258.95745 65.333098 261.83742 65.333098 259.26758 C 65.333098 257.472 69.315908 251.09631 71.895598 248.76172 C 73.163383 247.61439 74.25997 247.09042 75.061613 247.04297 z M 92.030363 248.10938 C 92.815395 248.10868 93.333098 248.22447 93.333098 248.43945 C 93.333098 249.15418 84.705533 262.4813 82.612395 265 C 80.345524 267.72775 78.409045 266.93348 79.358488 263.66602 C 81.164812 257.4496 87.444032 248.66482 90.383879 248.24024 C 90.992315 248.15234 91.559346 248.10979 92.030363 248.10938 z M 296.73544 272 C 298.87961 272 303.17246 280.47998 302.32138 283.0332 C 302.05528 283.8315 300.22528 282.36897 298.25302 279.7832 C 294.19394 274.46149 293.71424 272 296.73544 272 z M 285.69247 279.96094 C 286.78139 279.90434 288.45335 281.01818 289.22763 283.05469 C 289.86642 284.73482 291.32117 286.88294 292.46005 287.82813 C 294.66709 289.65979 298.03639 298.40804 296.95224 299.49219 C 296.59614 299.8483 294.93954 297.85888 293.2706 295.07031 C 291.60165 292.28176 289.22225 288.80064 287.98349 287.33399 C 286.74472 285.86733 285.36024 283.61731 284.90732 282.33399 C 284.351 280.7577 284.84552 280.00493 285.69247 279.96094 z M 74.635832 316.86328 C 75.320487 316.86381 75.984238 316.93918 76.598723 317.10352 L 80.448332 318.13281 L 74.512785 320.40039 C 67.646148 323.02279 66.667082 323.14195 66.667082 321.36328 C 66.667082 319.05273 70.938702 316.86041 74.635832 316.86328 z M 91.463957 328.44141 C 94.862713 328.50451 93.429103 330.53554 87.667082 332.0332 C 84.550421 332.84329 80.157424 334.06593 77.905363 334.75195 C 72.692324 336.33993 69.333098 336.34383 69.333098 334.76172 C 69.333098 333.48748 79.478629 330.27443 88.333098 328.74414 C 89.638471 328.51854 90.679629 328.42685 91.463957 328.44141 z " />
    <path
       id="path24"
       style="fill:#008080"
       d="M 226.63388 46.666017 C 225.1664 46.666017 213.3331 61.997133 213.3331 63.898438 C 213.3331 64.687473 212.85194 65.333985 212.26474 65.333985 C 210.30946 65.333985 205.16461 77.683631 204.53622 83.884767 C 203.36257 95.466659 213.76501 104.76401 222.60458 100.0332 C 224.716 98.903217 225.3331 97.252821 225.3331 92.732423 C 225.3331 87.509621 224.76775 86.443581 219.99325 82.66211 C 214.35697 78.198091 213.87642 74.30247 219.40927 77.927735 C 224.42738 81.215737 225.19006 80.484541 225.24325 72.333985 C 225.27075 68.117328 225.55673 63.466666 225.87802 62.000001 C 226.19931 60.533336 226.50941 58.883985 226.56552 58.333985 C 226.62162 57.783987 227.17705 57.333985 227.79989 57.333985 C 228.42275 57.333985 229.2797 66.482705 229.70614 77.666017 C 230.49258 98.289062 231.28952 103.91815 236.22177 123.73438 C 237.73684 129.82145 238.64848 135.128 238.24911 135.52734 C 237.84975 135.92671 231.33186 134.09565 223.76279 131.45703 C 216.19369 128.81842 209.24409 126.65995 208.31943 126.66211 C 207.39477 126.66411 204.09411 125.49326 200.98544 124.05859 C 190.09718 119.03362 150.44766 116.05215 136.46005 119.20703 C 134.00405 119.76097 131.90811 119.59751 131.42294 118.8125 C 129.99859 116.50785 135.83907 114.47228 146.11239 113.69531 L 155.97958 112.94922 L 153.17099 108.4043 C 151.62603 105.90451 150.75973 103.46205 151.24521 102.97656 C 152.75146 101.47033 156.57535 104.66546 158.57333 109.09961 C 160.39698 113.14688 160.82015 113.33399 168.19443 113.33399 C 174.45489 113.33399 176.16583 112.84738 177.28622 110.75391 C 179.55999 106.50533 178.87512 102.9429 174.93857 98.53711 C 171.67447 94.883956 170.30649 94.345987 163.93857 94.210938 C 152.97636 93.978458 142.62405 99.529201 125.60068 114.76758 C 123.1808 116.93372 121.47588 119.14644 121.81357 119.68555 C 122.15125 120.22466 126.17463 124.7217 130.75302 129.67774 C 141.31627 141.11231 151.72746 147.10682 159.57919 146.27344 C 169.77903 145.19083 177.52694 136.19209 174.68857 128.72656 C 172.98156 124.23678 173.26065 123.84373 178.19638 123.77734 C 185.64223 123.67719 205.31321 129.09877 208.60068 132.15625 C 209.29735 132.80417 210.66412 133.33399 211.63779 133.33399 C 214.56633 133.33399 235.50444 144.00661 240.66708 148.13086 C 245.15674 151.71747 265.32021 165.33399 266.14169 165.33399 C 267.30139 165.33399 279.14783 174.40761 288.44443 182.41797 C 304.16913 195.96709 322.96911 215.39882 330.74325 226.13672 C 337.61296 235.62538 350.66708 256.46623 350.66708 257.94531 C 350.66708 258.23991 353.31085 264.07394 356.54208 270.9082 C 359.77332 277.74248 362.72405 285.13399 363.09872 287.33399 C 363.4734 289.53397 365.37093 295.83399 367.31552 301.33399 C 371.44258 313.00676 376.72081 333.79683 377.97958 343.33399 C 378.46352 347.00064 379.39483 351.50066 380.04989 353.33399 C 381.51898 357.44544 385.47467 384.30374 384.72177 385.05664 C 384.42136 385.35705 382.12874 384.04214 379.62802 382.13477 C 377.12731 380.22738 374.38758 378.66602 373.54013 378.66602 C 372.69269 378.66602 371.99911 378.09109 371.99911 377.38867 C 371.99911 376.68625 369.20165 374.47261 365.78232 372.46875 C 362.36298 370.46488 357.11362 366.54339 354.1163 363.75391 C 351.11897 360.96442 347.66997 358.35456 346.45224 357.95508 C 342.73399 356.73529 340.37914 351.70072 337.86239 339.5918 C 335.18906 326.72944 333.32776 326.16733 333.00693 338.125 C 332.84754 344.06552 333.57769 347.56126 335.97763 352.35352 C 339.45756 359.30229 338.52151 362.73465 333.80966 360.30274 C 332.4476 359.59974 328.04685 358.60408 324.03036 358.0918 C 320.01389 357.57952 314.01322 356.52568 310.69638 355.74805 C 303.22089 353.99542 281.14171 346.59393 279.3331 345.23438 C 278.08229 344.29411 271.01578 348.85346 272.14364 349.87305 C 273.58122 351.17261 285.66189 356.55159 293.3331 359.30859 C 298.09975 361.02171 311.89915 364.86895 323.99911 367.85742 C 347.85611 373.74969 360.357 377.73579 360.99716 379.65625 C 361.22096 380.32767 357.83198 381.8687 353.46786 383.08203 C 349.10377 384.29536 343.94906 386.6483 342.01279 388.31055 L 338.49325 391.33399 L 351.44052 390.9043 C 358.5613 390.66815 365.7743 390.8225 367.46982 391.24805 C 371.91042 392.36258 378.418 399.5852 382.19247 407.58789 C 387.1899 418.18347 388.01303 440.97866 384.10458 460.52734 C 380.96059 476.25254 379.48439 479.90236 372.2413 489.85547 C 368.81839 494.55906 365.45088 497.31538 360.16708 499.73438 L 352.84091 503.08789 L 309.087 502.23438 L 265.3331 501.38281 L 265.3331 526.69141 L 265.3331 552 L 365.91513 552 L 466.49911 552 L 466.91513 527.66602 C 467.14475 514.28271 467.31538 503.21582 467.29404 503.07227 C 467.27274 502.92871 459.73339 502.25658 450.54013 501.57813 C 429.546 500.02881 424.86857 497.62356 418.7081 485.20703 C 414.80752 477.34538 414.66708 476.42777 414.66708 458.99609 C 414.66708 424.36105 421.49208 406.47131 440.87411 390.31055 L 447.3331 384.92578 L 442.97958 385.76758 C 430.98422 388.08473 416.91961 398.43347 407.78427 411.66602 C 405.63262 414.78267 403.24446 417.33399 402.47763 417.33399 C 399.9411 417.33399 404.01146 388.96601 408.12607 377.96875 C 411.39685 369.22677 425.609 346.99066 430.12216 343.55469 C 431.88816 342.21019 433.3331 340.26149 433.3331 339.22266 C 433.3331 336.28255 434.79074 336.9471 439.41904 342 C 442.84707 345.74256 444.68178 346.66602 448.68857 346.66602 C 461.11966 346.66602 468.62114 335.16604 468.25693 316.66602 C 468.14144 310.79935 467.70053 303.3 467.27646 300 L 466.50497 294 L 457.58505 294.08594 C 444.96376 294.20807 437.71771 295.63192 429.63974 299.57813 C 422.56452 303.03447 415.3849 309.92791 416.6788 312.02149 C 417.06233 312.64203 416.7678 313.52571 416.02255 313.98633 C 414.288 315.05834 414.27315 320.77272 415.99716 323.99414 C 416.729 325.3616 419.11191 327.75227 421.29208 329.30469 L 425.25497 332.12695 L 431.04989 326.78516 L 436.84482 321.44336 L 436.26279 313.38867 C 435.57743 303.91365 436.69315 302.93924 438.77255 311.19727 L 440.24911 317.0625 L 448.19443 309.60156 C 455.67943 302.57412 461.3331 299.62073 461.3331 302.73828 C 461.3331 304.40566 454.5592 310.56533 452.65927 310.625 C 448.45579 310.75702 412.4283 354.05336 403.90927 369.21094 C 398.93664 378.05853 395.33554 375.99432 394.81747 364 C 394.64326 359.96669 394.31362 352.76667 394.087 348 C 393.53332 336.35434 396.51103 312.26537 399.47763 304.38281 C 400.79885 300.8722 403.80402 294.69933 406.15732 290.66602 C 408.5106 286.63268 410.25911 283.15468 410.04208 282.93555 C 409.82506 282.71642 406.94448 284.99633 403.63974 288.00391 C 397.01274 294.03501 390.06947 305.91151 388.62802 313.68164 C 387.19851 321.38736 385.83983 320.77546 383.26669 311.26953 C 381.97025 306.48012 380.40487 302.25028 379.78818 301.86914 C 379.17148 301.488 378.65637 299.56127 378.64364 297.58789 C 378.63094 295.6145 377.72168 289.79933 376.62411 284.66602 C 374.98817 277.0147 374.92161 274.18192 376.24911 268.94141 C 377.81294 262.76796 378.20274 262.38267 387.65536 257.71094 C 393.03885 255.05028 399.66827 252.75434 402.38779 252.60938 C 405.10729 252.46443 412.43376 251.36795 418.66708 250.17383 C 435.22828 247.00118 434.67704 246.84634 433.7745 254.4668 C 432.85108 262.26382 435.24241 266.70307 442.12021 269.9668 C 446.36915 271.98306 447.34294 271.99169 453.95224 270.07031 C 460.89638 268.05161 467.81818 263.50535 471.99911 258.21484 C 474.68503 254.81613 477.40258 252.11071 482.92489 247.33399 L 487.54794 243.33399 L 479.68075 235.6582 C 469.99901 226.21364 453.06138 216.05698 446.93466 216.02344 C 438.28613 215.97614 430.66708 222.35779 430.66708 229.64844 C 430.66708 236.48868 432.73814 238.09215 440.60263 237.33984 C 446.48877 236.7768 448.23212 235.95894 451.2706 232.33399 C 453.26834 229.95066 456.0818 228 457.5206 228 C 459.95032 228 459.8865 228.32578 456.64755 232.57227 L 453.16122 237.14453 L 459.24716 237.90625 C 462.59451 238.32495 467.88246 238.98498 470.99911 239.37305 C 477.46947 240.17869 480.69874 241.79002 479.5538 243.64258 C 479.06336 244.43614 474.09926 244.19703 466.38388 243.00977 C 448.50928 240.25917 416.80858 242.2384 388.09091 247.89844 C 379.78542 249.53539 376.50604 247.98654 380.3331 244.23242 C 381.24977 243.33323 387.70043 231.36425 394.66708 217.63672 C 402.01751 203.15294 408.21271 192.51414 409.4288 192.28711 C 410.6101 192.06657 412.18517 193.34465 413.03818 195.2168 C 414.96918 199.45491 421.85891 203.0898 425.73349 201.91406 C 432.09236 199.98449 436.9428 194.83865 439.92685 186.85938 C 442.62871 179.63468 442.81737 177.52382 441.94833 164.11524 C 441.14137 151.66464 440.64445 149.33399 438.79404 149.33399 C 432.80421 149.33399 413.29196 152.3218 407.96396 154.05469 C 399.83901 156.69728 392.47443 161.88315 389.96982 166.72656 C 386.0455 174.31535 391.89024 185.33399 399.84091 185.33399 C 401.29385 185.33399 404.35567 182.91927 406.7745 179.86524 C 410.7666 174.82481 410.98271 174.06046 409.55185 170.10352 C 408.69811 167.74242 407.99911 164.76869 407.99911 163.49414 C 407.99911 159.9466 410.35086 162.19169 411.337 166.68164 C 411.81836 168.87323 412.7424 170.66602 413.38974 170.66602 C 414.03709 170.66602 418.26403 167.3673 422.78427 163.33399 C 430.4662 156.47952 433.3331 154.73282 433.3331 156.90625 C 433.3331 157.40418 431.38244 159.68844 428.99911 161.98242 C 423.73085 167.05323 409.81267 182.22826 405.59677 187.49805 C 401.97233 192.02852 389.4358 213.30411 383.69638 224.66602 C 381.47374 229.066 379.2148 232.96732 378.67489 233.33399 C 377.87795 233.87521 376.30519 237.58286 375.28232 241.33399 C 374.15978 245.4506 365.73562 261.33399 364.67489 261.33399 C 362.89829 261.33399 349.3331 234.20344 349.3331 230.65039 C 349.3331 229.19254 348.8425 228 348.24325 228 C 346.27504 228 342.48618 208.409 342.3956 197.76367 L 342.30771 187.33399 L 339.76864 192.66602 C 337.25647 197.94202 337.1612 206.96214 339.50693 217.66602 C 340.00008 219.9163 339.74919 221.33399 338.85654 221.33399 C 338.05655 221.33399 336.5337 219.68267 335.47177 217.66602 C 331.42092 209.97321 286.9057 168 282.79794 168 C 281.9928 168 281.3331 167.48646 281.3331 166.85938 C 281.3331 166.2323 277.80358 163.24306 273.48935 160.2168 C 264.85273 154.15855 253.52724 142.39088 248.30185 134.04492 C 246.44977 131.0868 244.57426 128.36667 244.13388 128 C 243.69351 127.63334 243.21631 126.73334 243.07333 126 C 242.93034 125.26667 241.28098 120.32829 239.40732 115.02539 C 234.75474 101.85769 234.86008 92.72619 239.61044 97.476563 C 240.69122 98.557336 242.4001 98.521185 245.97958 97.339845 C 251.71556 95.446805 255.98788 89.347905 255.99521 83.041017 C 256.00321 76.509533 245.46665 61.177541 236.26083 54.322267 C 232.08359 51.211604 228.46622 48.216015 228.22177 47.666017 C 227.97733 47.116017 227.26325 46.666017 226.63388 46.666017 z M 244.29989 65.423829 C 245.21943 65.406479 244.92621 66.022788 243.89755 67.669923 C 242.19865 70.390293 235.95486 74.666017 233.68271 74.666017 C 233.00141 74.666017 232.44443 73.71591 232.44443 72.552735 C 232.44443 70.072316 236.44385 67.230394 241.78622 65.916017 C 243.00265 65.616742 243.81824 65.432918 244.29989 65.423829 z M 251.72177 76.205079 C 252.31143 76.197779 252.76661 76.322182 253.04599 76.601563 C 253.96606 77.521637 243.86447 86.536192 241.82919 86.611329 C 241.00231 86.641859 239.58 87.566018 238.66708 88.666017 C 237.75416 89.766015 235.80723 90.666017 234.34091 90.666017 C 231.8811 90.666017 231.82731 90.433951 233.6456 87.666017 C 236.87168 82.754995 247.59414 76.25591 251.72177 76.205079 z M 165.87607 121.62109 C 166.00827 121.62809 166.11678 121.67239 166.20029 121.75586 C 167.40683 122.96242 163.7997 129.36158 157.60654 137 C 152.80953 142.91647 150.66708 144.04799 150.66708 140.66602 C 150.66708 139.56602 151.19459 138.66602 151.83896 138.66602 C 152.48332 138.66602 153.78944 136.78324 154.74325 134.48047 C 156.77116 129.58469 163.89304 121.51026 165.87607 121.62109 z M 147.44247 122.66602 C 150.33474 122.66602 149.70277 125.62859 145.94638 129.67969 C 142.77518 133.09968 139.99911 134.41133 139.99911 132.49024 C 139.99911 130.28467 145.77167 122.66602 147.44247 122.66602 z M 430.62216 170.75781 C 430.77185 170.75681 430.92406 170.75677 431.07919 170.75977 C 435.43894 170.85577 441.7302 172.90431 439.3331 173.44727 C 437.03629 173.96753 431.46026 174.03531 428.31357 173.58008 C 424.01123 172.95767 425.98179 170.7931 430.62216 170.75781 z M 418.21396 183.36524 C 420.53932 183.34214 423.41811 183.55838 426.67685 184.0293 C 431.43774 184.71729 436.08244 185.2919 436.99911 185.30664 C 437.91578 185.32134 438.66708 185.93269 438.66708 186.66602 C 438.66708 187.95736 427.6438 188.14278 416.99911 187.0293 C 414.24913 186.74165 411.99911 186.00603 411.99911 185.39649 C 411.99911 184.10519 414.33834 183.40379 418.21396 183.36524 z M 460.57919 245.80469 C 463.39084 245.67327 470.66708 254.146 470.66708 257.93359 C 470.66708 259.79857 467.55736 258.32557 464.47372 255 C 459.75602 249.91217 458.35166 247.02006 460.08114 245.95117 C 460.22543 245.86197 460.39175 245.81345 460.57919 245.80469 z M 443.96982 246.77734 C 444.44083 246.77776 445.00786 246.82034 445.6163 246.9082 C 448.55615 247.33281 454.83537 256.11758 456.64169 262.33399 C 457.59114 265.60145 455.6527 266.39375 453.38583 263.66602 C 451.29269 261.14731 442.66708 247.82214 442.66708 247.10742 C 442.66708 246.89244 443.18479 246.77665 443.96982 246.77734 z M 216.94443 257.33399 C 216.65742 257.33399 215.69877 259.88333 214.81552 263 C 213.93227 266.11667 212.71815 269.86733 212.1163 271.33399 C 210.02871 276.42127 207.70982 286.03203 207.06552 292.26953 C 206.26257 300.04297 208.36043 306.67587 213.29013 311.95313 C 218.09284 317.09445 224.81502 317.46436 230.14364 312.88086 L 233.7706 309.76172 L 230.54794 303.92383 C 227.99679 299.29911 226.23499 297.77646 222.07529 296.60938 C 214.80627 294.5699 214.33021 292 221.22177 292 C 224.21622 292 226.6655 291.84935 226.66513 291.66602 C 226.66476 291.48268 225.52398 288.33171 224.12997 284.66406 C 220.63667 275.47321 219.0853 264.80542 221.35068 265.56055 C 222.91653 266.08251 224.48272 270.39546 228.28818 284.66602 C 230.32111 292.28959 241.0792 315.63177 245.70614 322.45703 C 250.15355 329.01746 257.23065 337.33399 258.3663 337.33399 C 258.78259 337.33399 260.16421 336.39172 261.43661 335.24024 C 263.60396 333.27882 263.31697 332.68229 256.87607 325.79102 C 253.09475 321.74529 248.03299 315.33688 245.62802 311.55078 L 241.25497 304.66602 L 246.22763 303.63281 C 252.37393 302.35406 255.4673 299.65615 257.35849 293.92578 C 261.04672 282.75031 250.77289 269.74223 233.75693 264.04297 C 228.75765 262.36853 223.04577 260.17385 221.06552 259.16602 C 219.08527 258.15818 217.23144 257.33399 216.94443 257.33399 z M 238.99325 271.05078 C 239.05425 271.05178 239.11114 271.06313 239.16513 271.08203 C 241.60481 271.93947 240.09104 276.37612 235.90341 280.64063 C 232.94866 283.64961 231.99911 284.07421 231.99911 282.38477 C 231.99911 279.1568 237.10377 271.00502 238.99325 271.05078 z M 251.27841 278.66602 C 252.4213 278.66602 252.11688 283.72883 250.94443 284.22266 C 249.45481 284.85006 243.23235 293.27137 240.81357 297.93359 C 239.23438 300.97749 238.60106 301.38287 237.97372 299.74805 C 236.78659 296.65443 248.13897 278.66602 251.27841 278.66602 z M 454.3331 316.01758 C 458.81221 316.05258 462.66708 317.65778 462.66708 319.48828 C 462.66708 321.56379 459.47986 321.76001 454.99911 319.95899 C 451.44236 318.52935 451.01384 315.99168 454.3331 316.01758 z M 443.32333 328.12695 C 444.37235 328.13395 445.68736 328.21355 447.2706 328.37695 C 455.16001 329.19121 461.48589 331.69116 462.34677 334.33399 C 463.08118 336.58857 459.75217 336.25764 448.99911 333.00586 C 439.73216 330.20349 437.65866 328.09047 443.32333 328.12695 z " />
  </g>
</svg>
